<?xml version="1.0" encoding="utf-8"?>
<!-- Generator: Adobe Illustrator 15.1.0, SVG Export Plug-In . SVG Version: 6.00 Build 0)  -->
<!DOCTYPE svg PUBLIC "-//W3C//DTD SVG 1.1//EN" "http://www.w3.org/Graphics/SVG/1.1/DTD/svg11.dtd">
<svg version="1.1" id="Layer_1" xmlns="http://www.w3.org/2000/svg" xmlns:xlink="http://www.w3.org/1999/xlink" x="0px" y="0px"
	 width="800px" height="600px" viewBox="0 0 800 600" enable-background="new 0 0 800 600" xml:space="preserve">
<g>
	<g id="g5124">
		<path id="rect2987" fill="#65BC54" d="M2.323,0h91.154c1.283,0,2.322,1.04,2.322,2.323v15.373c0,1.283-1.04,2.322-2.322,2.322
			H2.323C1.04,20.018,0,18.979,0,17.695V2.323C0,1.04,1.04,0,2.323,0z"/>
		<path id="WhatsApp_2_" fill="#FFFFFF" d="M18.524,9.822c0,3.906-3.19,7.071-7.126,7.071c-1.25,0-2.424-0.319-3.445-0.879
			l-3.945,1.253l1.286-3.794c-0.648-1.065-1.022-2.315-1.022-3.651c0-3.906,3.19-7.072,7.127-7.072
			C15.334,2.75,18.524,5.917,18.524,9.822z M11.398,3.876c-3.304,0-5.992,2.667-5.992,5.946c0,1.301,0.423,2.506,1.142,3.485
			l-0.749,2.208l2.303-0.732c0.946,0.622,2.079,0.983,3.296,0.983c3.304,0,5.992-2.667,5.992-5.945
			C17.39,6.543,14.702,3.876,11.398,3.876z M14.997,11.451c-0.044-0.071-0.161-0.116-0.335-0.202
			c-0.175-0.087-1.034-0.506-1.194-0.564c-0.16-0.057-0.276-0.086-0.393,0.087c-0.116,0.173-0.451,0.563-0.553,0.679
			c-0.103,0.116-0.204,0.131-0.379,0.043c-0.174-0.086-0.737-0.27-1.404-0.86c-0.52-0.459-0.87-1.027-0.972-1.201
			C9.665,9.26,9.756,9.167,9.843,9.08c0.079-0.078,0.174-0.203,0.262-0.303c0.088-0.102,0.116-0.174,0.174-0.289
			c0.059-0.116,0.029-0.217-0.014-0.304c-0.044-0.086-0.394-0.939-0.539-1.287c-0.146-0.347-0.291-0.29-0.393-0.29
			S9.115,6.594,8.999,6.594c-0.117,0-0.306,0.043-0.466,0.217c-0.16,0.174-0.611,0.593-0.611,1.445c0,0.854,0.625,1.677,0.713,1.793
			c0.087,0.116,1.208,1.922,2.984,2.617c1.777,0.694,1.777,0.462,2.097,0.433c0.319-0.028,1.034-0.418,1.179-0.824
			C15.04,11.87,15.04,11.523,14.997,11.451z"/>
	</g>
	<g>
		<path fill="#FFFFFF" d="M23.985,13.125L22.407,6.68h1.253l0.612,2.926c0.162,0.784,0.315,1.607,0.421,2.248h0.019
			c0.105-0.679,0.287-1.444,0.469-2.257l0.698-2.917h1.234l0.64,2.965c0.164,0.765,0.297,1.481,0.393,2.18h0.019
			c0.115-0.708,0.268-1.444,0.44-2.228l0.669-2.917h1.195l-1.73,6.445h-1.262l-0.669-3.032c-0.163-0.736-0.277-1.348-0.354-2.046
			h-0.02c-0.114,0.688-0.239,1.31-0.43,2.046l-0.746,3.032H23.985z"/>
		<path fill="#FFFFFF" d="M31.136,6.336h1.186V9.11h0.02c0.143-0.221,0.334-0.402,0.583-0.536c0.229-0.134,0.507-0.211,0.803-0.211
			c0.794,0,1.626,0.526,1.626,2.019v2.744h-1.176v-2.611c0-0.679-0.249-1.186-0.898-1.186c-0.459,0-0.785,0.306-0.909,0.66
			c-0.038,0.096-0.048,0.22-0.048,0.354v2.783h-1.186V6.336z"/>
		<path fill="#FFFFFF" d="M39.225,13.125l-0.077-0.516H39.12c-0.287,0.363-0.775,0.622-1.377,0.622c-0.937,0-1.463-0.68-1.463-1.386
			c0-1.177,1.042-1.77,2.763-1.76v-0.076c0-0.307-0.125-0.813-0.947-0.813c-0.459,0-0.936,0.144-1.252,0.344l-0.229-0.765
			c0.344-0.21,0.946-0.412,1.683-0.412c1.492,0,1.922,0.948,1.922,1.96v1.684c0,0.42,0.019,0.832,0.067,1.119H39.225z M39.072,10.85
			c-0.832-0.02-1.625,0.163-1.625,0.871c0,0.458,0.296,0.669,0.669,0.669c0.469,0,0.813-0.306,0.918-0.641
			c0.029-0.086,0.039-0.181,0.039-0.259V10.85z"/>
		<path fill="#FFFFFF" d="M42.752,7.14v1.329h1.119v0.88h-1.119v2.056c0,0.564,0.153,0.86,0.603,0.86
			c0.201,0,0.354-0.028,0.459-0.057l0.02,0.898c-0.172,0.067-0.479,0.115-0.851,0.115c-0.431,0-0.794-0.144-1.014-0.382
			c-0.249-0.268-0.363-0.688-0.363-1.301V9.349h-0.67v-0.88h0.67V7.417L42.752,7.14z"/>
		<path fill="#FFFFFF" d="M44.702,12.045c0.268,0.163,0.775,0.335,1.195,0.335c0.516,0,0.746-0.211,0.746-0.517
			c0-0.315-0.191-0.479-0.765-0.679c-0.909-0.315-1.291-0.812-1.281-1.357c0-0.822,0.678-1.464,1.759-1.464
			c0.516,0,0.966,0.135,1.233,0.278l-0.229,0.832c-0.201-0.115-0.574-0.268-0.985-0.268c-0.421,0-0.65,0.201-0.65,0.488
			c0,0.296,0.22,0.44,0.812,0.65c0.841,0.306,1.233,0.736,1.243,1.425c0,0.842-0.659,1.454-1.893,1.454
			c-0.564,0-1.071-0.134-1.416-0.325L44.702,12.045z"/>
		<path fill="#FFFFFF" d="M51.366,13.125l-0.076-0.516h-0.029c-0.287,0.363-0.774,0.622-1.376,0.622
			c-0.938,0-1.463-0.68-1.463-1.386c0-1.177,1.042-1.77,2.764-1.76v-0.076c0-0.307-0.125-0.813-0.947-0.813
			c-0.459,0-0.937,0.144-1.253,0.344l-0.229-0.765c0.345-0.21,0.947-0.412,1.683-0.412c1.492,0,1.921,0.948,1.921,1.96v1.684
			c0,0.42,0.02,0.832,0.067,1.119H51.366z M51.213,10.85c-0.831-0.02-1.625,0.163-1.625,0.871c0,0.458,0.297,0.669,0.669,0.669
			c0.469,0,0.813-0.306,0.918-0.641c0.029-0.086,0.038-0.181,0.038-0.259V10.85z"/>
		<path fill="#FFFFFF" d="M53.603,10.018c0-0.612-0.019-1.109-0.038-1.549h1.033l0.058,0.717h0.019
			c0.344-0.526,0.889-0.823,1.597-0.823c1.071,0,1.96,0.918,1.96,2.373c0,1.683-1.062,2.496-2.123,2.496
			c-0.583,0-1.071-0.249-1.311-0.622h-0.019v2.41h-1.177V10.018z M54.779,11.175c0,0.115,0.009,0.22,0.038,0.325
			c0.115,0.478,0.535,0.822,1.033,0.822c0.746,0,1.186-0.622,1.186-1.54c0-0.823-0.402-1.492-1.158-1.492
			c-0.487,0-0.937,0.354-1.051,0.87c-0.029,0.096-0.048,0.201-0.048,0.297V11.175z"/>
		<path fill="#FFFFFF" d="M59.196,10.018c0-0.612-0.019-1.109-0.039-1.549h1.033l0.057,0.717h0.019
			c0.344-0.526,0.889-0.823,1.597-0.823c1.071,0,1.96,0.918,1.96,2.373c0,1.683-1.062,2.496-2.123,2.496
			c-0.583,0-1.071-0.249-1.31-0.622h-0.019v2.41h-1.176V10.018z M60.372,11.175c0,0.115,0.009,0.22,0.039,0.325
			c0.114,0.478,0.535,0.822,1.032,0.822c0.746,0,1.186-0.622,1.186-1.54c0-0.823-0.402-1.492-1.157-1.492
			c-0.487,0-0.937,0.354-1.051,0.87c-0.029,0.096-0.048,0.201-0.048,0.297V11.175z"/>
		<path fill="#FFFFFF" d="M66.786,11.845c0.383,0.219,0.957,0.411,1.559,0.411c0.756,0,1.176-0.354,1.176-0.88
			c0-0.488-0.325-0.774-1.148-1.071c-1.061-0.382-1.739-0.947-1.739-1.874c0-1.051,0.879-1.855,2.275-1.855
			c0.699,0,1.215,0.153,1.549,0.326l-0.287,0.946c-0.229-0.124-0.679-0.306-1.282-0.306c-0.746,0-1.071,0.402-1.071,0.774
			c0,0.498,0.373,0.727,1.234,1.062c1.119,0.42,1.664,0.984,1.664,1.912c0,1.033-0.784,1.932-2.448,1.932
			c-0.68,0-1.387-0.191-1.741-0.402L66.786,11.845z"/>
		<path fill="#FFFFFF" d="M71.7,6.336h1.186V9.11h0.019c0.143-0.221,0.334-0.402,0.583-0.536c0.229-0.134,0.507-0.211,0.803-0.211
			c0.794,0,1.625,0.526,1.625,2.019v2.744h-1.176v-2.611c0-0.679-0.249-1.186-0.898-1.186c-0.459,0-0.785,0.306-0.909,0.66
			c-0.039,0.096-0.048,0.22-0.048,0.354v2.783H71.7V6.336z"/>
		<path fill="#FFFFFF" d="M79.789,13.125l-0.077-0.516h-0.028c-0.287,0.363-0.775,0.622-1.377,0.622
			c-0.937,0-1.463-0.68-1.463-1.386c0-1.177,1.042-1.77,2.764-1.76v-0.076c0-0.307-0.125-0.813-0.948-0.813
			c-0.458,0-0.936,0.144-1.252,0.344l-0.229-0.765c0.344-0.21,0.946-0.412,1.683-0.412c1.492,0,1.922,0.948,1.922,1.96v1.684
			c0,0.42,0.02,0.832,0.067,1.119H79.789z M79.636,10.85c-0.832-0.02-1.625,0.163-1.625,0.871c0,0.458,0.296,0.669,0.669,0.669
			c0.469,0,0.812-0.306,0.918-0.641c0.029-0.086,0.039-0.181,0.039-0.259V10.85z"/>
		<path fill="#FFFFFF" d="M82.026,9.97c0-0.631-0.01-1.081-0.039-1.501h1.024l0.038,0.889h0.039c0.229-0.66,0.774-0.995,1.271-0.995
			c0.115,0,0.182,0.01,0.277,0.029v1.109c-0.096-0.019-0.201-0.038-0.344-0.038c-0.564,0-0.947,0.363-1.052,0.889
			c-0.02,0.105-0.038,0.229-0.038,0.363v2.41h-1.176V9.97z"/>
		<path fill="#FFFFFF" d="M86.175,11.126c0.029,0.842,0.689,1.206,1.435,1.206c0.545,0,0.938-0.077,1.291-0.21l0.172,0.813
			c-0.402,0.162-0.956,0.286-1.625,0.286c-1.511,0-2.401-0.928-2.401-2.353c0-1.291,0.784-2.506,2.276-2.506
			c1.511,0,2.008,1.244,2.008,2.267c0,0.22-0.019,0.392-0.039,0.497H86.175z M88.221,10.305c0.009-0.43-0.182-1.138-0.966-1.138
			c-0.727,0-1.033,0.66-1.081,1.138H88.221z"/>
	</g>
</g>
</svg>
